<svg width="814" height="174" viewBox="0 0 814 174" fill="none" xmlns="http://www.w3.org/2000/svg">
<g clip-path="url(#clip0_28_8)">
<path d="M7.93334 126.467C7 126.933 6.06667 127.167 5.13333 127.167C3.73333 127.167 2.56666 126.7 1.63333 125.767C0.699993 124.679 0.158333 123.279 0 121.567C0 119.854 0.0791657 118.613 0.233333 117.833C3.19167 106.167 8.01251 97.0668 14.7 90.5334C15.4792 89.6001 16.6458 88.5876 18.2 87.5001C20.6917 85.4792 23.2584 84.4667 25.9 84.4667C28.2334 84.4667 30.5667 85.4001 32.9 87.2667C33.9917 88.0459 34.6917 88.4334 35 88.4334C35.4667 88.4334 36.1667 87.8126 37.1 86.5667C38.3459 85.1667 40.0584 82.9126 42.2334 79.8001L45.2667 75.6001C47.6 72.3334 48.7667 70.7001 48.7667 70.7001C50.1667 69.3001 51.5667 68.9126 52.9667 69.5334C54.525 70.4667 54.9125 72.0209 54.1334 74.2001L51.1 80.5001C46.9 88.7459 43.7917 96.5209 41.7667 103.833C40.2125 109.433 39.4334 113.633 39.4334 116.433C39.4334 117.213 39.6667 117.833 40.1334 118.3C40.6 118.613 41.1459 118.613 41.7667 118.3C44.5667 117.054 46.6667 116.046 48.0667 115.267C51.6459 112.933 54.525 110.833 56.7 108.967C58.8792 107.254 60.8251 105.546 62.5334 103.833L68.1334 98.9334C70.6251 96.9126 71.9459 95.8209 72.1001 95.6667C73.0334 94.8876 73.9667 94.9667 74.9001 95.9001C75.9917 96.6792 76.3001 97.8459 75.8334 99.4001C75.8334 99.5542 75.3667 100.1 74.4334 101.033C65.5667 109.9 57.5584 116.513 50.4 120.867C46.0459 123.821 42.3125 125.3 39.2 125.3C35.3125 125.3 33.3667 123.046 33.3667 118.533C33.3667 116.354 33.6792 113.088 34.3 108.733C34.6125 107.021 35.3125 104.067 36.4 99.8667C34.5334 100.488 33.1333 101.421 32.2 102.667C31.425 103.754 30.8792 104.454 30.5667 104.767C24.1917 112.388 18.7458 118.146 14.2333 122.033C11.9 124.054 9.80001 125.533 7.93334 126.467ZM7.23334 118.767C8.01251 118.921 8.7125 118.688 9.33333 118.067C15.2458 113.088 21.9334 105.854 29.4 96.3667C29.7125 96.2126 30.025 95.8209 30.3334 95.2001C30.4917 94.8876 30.5667 94.5001 30.5667 94.0334C30.5667 93.1001 30.1792 92.4001 29.4 91.9334C28.3125 91.1542 27.225 90.7667 26.1334 90.7667C25.825 90.7667 25.2 90.9209 24.2667 91.2334C22.8667 91.7001 21.625 92.4792 20.5333 93.5667C13.225 99.9459 8.63333 108.188 6.76666 118.3C6.76666 118.3 6.84582 118.379 6.99999 118.533C7.15832 118.533 7.23334 118.613 7.23334 118.767ZM72.2834 162.867C71.0417 163.488 69.7959 163.8 68.5501 163.8C66.0626 163.8 64.0417 162.167 62.4834 158.9C61.55 156.721 61.0834 153.767 61.0834 150.033C61.0834 146.146 61.3959 142.021 62.0167 137.667C62.6417 133.313 63.0292 130.588 63.1834 129.5C65.675 114.254 70.8084 95.9001 78.5834 74.4334C79.3626 71.9459 80.2167 69.6126 81.1501 67.4334L83.0167 62.3001C83.4834 61.0542 83.7167 60.0459 83.7167 59.2667C83.7167 58.4876 83.3292 58.0209 82.5501 57.8667C81.9292 57.5542 80.8417 57.4792 79.2834 57.6334L60.3834 59.9667C59.7625 60.1209 58.9834 60.2792 58.05 60.4334C57.1167 60.5876 55.95 60.6667 54.55 60.6667C53.4625 60.6667 52.6084 60.5876 51.9834 60.4334C51.05 60.1209 50.5084 59.6542 50.35 59.0334V58.3334C50.35 57.4001 50.7417 56.7792 51.5167 56.4667C53.075 56 55.25 55.4542 58.05 54.8334C62.8751 54.2125 71.1959 53.2 83.0167 51.8C85.8167 51.6459 87.7626 50.3209 88.8501 47.8334L95.1501 33.8334C97.9501 28.8542 100.129 25.1209 101.683 22.6333C102.308 21.2333 103.083 20.2208 104.017 19.6C104.95 18.8208 105.808 18.4333 106.583 18.4333C107.208 18.4333 107.675 18.6667 107.983 19.1334C108.45 19.6 108.683 20.2209 108.683 21C108.683 21.9334 108.296 23.3334 107.517 25.2C106.275 28.3125 103.396 34.5334 98.8834 43.8667C98.7292 44.1792 98.4168 44.8792 97.9501 45.9667C97.4834 46.9 97.2501 48.0667 97.2501 49.4667C98.8084 49.7792 99.8167 49.9334 100.283 49.9334L102.85 49.7C110.163 48.9209 117.163 48.3 123.85 47.8334L145.317 45.7334C147.183 45.5792 148.817 45.5792 150.217 45.7334H153.717C154.65 45.7334 155.275 46.5125 155.583 48.0667C155.583 49.3125 155.117 50.0875 154.183 50.4C152.629 50.7125 150.608 51.0209 148.117 51.3334L97.9501 55.7667C96.2417 55.9209 94.8417 56.3875 93.7501 57.1667C92.6626 57.7875 91.8084 58.8792 91.1834 60.4334C88.3834 66.8126 84.6501 77.0792 79.9834 91.2334C75.3167 105.233 72.2084 115.813 70.6501 122.967C69.0959 129.188 67.9292 136.967 67.15 146.3C67.15 147.079 67.075 147.854 66.9167 148.633C66.7625 149.413 66.6834 150.188 66.6834 150.967C66.6834 153.454 67.5417 155.4 69.2501 156.8C70.8084 156.646 72.0501 156.1 72.9834 155.167C73.9167 154.388 74.7751 153.454 75.5501 152.367C76.4834 151.433 77.1084 150.733 77.4167 150.267C82.2417 144.2 88.6959 135.413 96.7834 123.9C98.0292 122.188 100.829 118.379 105.183 112.467C109.542 106.4 112.65 102.354 114.517 100.333C114.675 100.179 115.142 99.5543 115.917 98.4668C116.85 97.2209 118.096 96.2876 119.65 95.6667C120.583 95.3542 121.442 95.4334 122.217 95.9001C123.463 96.8334 123.696 98.0001 122.917 99.4001C122.917 99.8668 122.683 100.333 122.217 100.8C119.263 104.221 113.429 111.921 104.717 123.9C103.317 125.767 99.8168 130.588 94.2167 138.367C88.6167 145.988 83.4834 152.446 78.8167 157.733C77.2626 159.913 75.0834 161.621 72.2834 162.867ZM189.179 162.867C187.933 163.488 186.692 163.8 185.446 163.8C182.958 163.8 180.933 162.167 179.379 158.9C178.446 156.721 177.979 153.767 177.979 150.033C177.979 146.146 178.292 142.021 178.913 137.667C179.533 133.313 179.925 130.588 180.079 129.5C182.567 114.254 187.7 95.9001 195.479 74.4334C196.259 71.9459 197.113 69.6126 198.046 67.4334L199.913 62.3001C200.379 61.0542 200.613 60.0459 200.613 59.2667C200.613 58.4876 200.225 58.0209 199.446 57.8667C198.825 57.5542 197.734 57.4792 196.179 57.6334L177.279 59.9667C176.658 60.1209 175.879 60.2792 174.946 60.4334C174.013 60.5876 172.846 60.6667 171.446 60.6667C170.358 60.6667 169.5 60.5876 168.879 60.4334C167.946 60.1209 167.4 59.6542 167.246 59.0334V58.3334C167.246 57.4001 167.633 56.7792 168.413 56.4667C169.967 56 172.146 55.4542 174.946 54.8334C179.767 54.2125 188.092 53.2 199.913 51.8C202.713 51.6459 204.659 50.3209 205.746 47.8334L212.046 33.8334C214.846 28.8542 217.025 25.1209 218.579 22.6333C219.2 21.2333 219.979 20.2208 220.913 19.6C221.846 18.8208 222.7 18.4333 223.479 18.4333C224.1 18.4333 224.567 18.6667 224.879 19.1334C225.346 19.6 225.579 20.2209 225.579 21C225.579 21.9334 225.192 23.3334 224.413 25.2C223.167 28.3125 220.292 34.5334 215.779 43.8667C215.625 44.1792 215.313 44.8792 214.846 45.9667C214.379 46.9 214.146 48.0667 214.146 49.4667C215.7 49.7792 216.713 49.9334 217.179 49.9334L219.746 49.7C227.059 48.9209 234.059 48.3 240.746 47.8334L262.213 45.7334C264.079 45.5792 265.713 45.5792 267.113 45.7334H270.613C271.546 45.7334 272.167 46.5125 272.479 48.0667C272.479 49.3125 272.013 50.0875 271.079 50.4C269.525 50.7125 267.5 51.0209 265.013 51.3334L214.846 55.7667C213.134 55.9209 211.734 56.3875 210.646 57.1667C209.559 57.7875 208.7 58.8792 208.079 60.4334C205.279 66.8126 201.546 77.0792 196.879 91.2334C192.213 105.233 189.1 115.813 187.546 122.967C185.992 129.188 184.825 136.967 184.046 146.3C184.046 147.079 183.967 147.854 183.813 148.633C183.658 149.413 183.579 150.188 183.579 150.967C183.579 153.454 184.433 155.4 186.146 156.8C187.7 156.646 188.946 156.1 189.879 155.167C190.813 154.388 191.667 153.454 192.446 152.367C193.379 151.433 194 150.733 194.313 150.267C199.134 144.2 205.592 135.413 213.679 123.9C214.925 122.188 217.725 118.379 222.079 112.467C226.434 106.4 229.546 102.354 231.413 100.333C231.567 100.179 232.034 99.5543 232.813 98.4668C233.746 97.2209 234.992 96.2876 236.546 95.6667C237.479 95.3542 238.334 95.4334 239.113 95.9001C240.359 96.8334 240.592 98.0001 239.813 99.4001C239.813 99.8668 239.579 100.333 239.113 100.8C236.159 104.221 230.325 111.921 221.613 123.9C220.213 125.767 216.713 130.588 211.113 138.367C205.513 145.988 200.379 152.446 195.713 157.733C194.159 159.913 191.979 161.621 189.179 162.867ZM316.388 95.9001C317.321 96.6792 317.709 97.6126 317.554 98.7001C317.242 100.1 316.154 101.733 314.288 103.6C311.642 106.088 307.442 109.433 301.688 113.633C296.088 117.679 291.963 120.246 289.321 121.333C287.296 122.113 285.663 122.5 284.421 122.5C282.242 122.5 280.375 121.8 278.821 120.4C277.263 118.846 276.175 116.746 275.554 114.1C274.775 110.367 274.542 105.546 274.854 99.6334C274.854 96.9876 274.775 94.9667 274.621 93.5667C274.621 93.2542 274.388 93.0209 273.921 92.8667C273.609 92.5542 273.296 92.5542 272.988 92.8667C271.742 93.6459 270.809 94.4209 270.188 95.2001C266.763 98.9334 263.342 103.754 259.921 109.667C254.788 117.754 249.654 127.4 244.521 138.6L239.154 148.633C238.221 150.654 236.975 152.288 235.421 153.533C234.329 154.313 233.396 154.7 232.621 154.7C230.909 154.7 229.663 153.688 228.888 151.667C228.421 149.8 228.188 147.779 228.188 145.6C227.875 138.913 228.575 130.046 230.288 119C230.596 116.979 231.221 113.946 232.154 109.9L233.788 101.033C233.942 100.567 234.175 99.7876 234.488 98.7001C234.796 97.4543 234.954 96.3667 234.954 95.4334C234.954 94.3459 234.721 93.2542 234.254 92.1667C234.096 92.0126 234.021 91.7001 234.021 91.2334C234.021 90.6126 234.175 89.9876 234.488 89.3667C234.954 88.7459 235.263 88.2792 235.421 87.9667C236.975 85.7876 238.296 83.1459 239.388 80.0334C240.629 76.9209 241.409 74.9001 241.721 73.9667C248.409 54.0542 258.442 33.0542 271.821 10.9667C272.288 10.0333 274.388 7.15417 278.121 2.33333C278.896 1.55417 279.909 0.854166 281.154 0.233333C281.309 0.0791657 281.542 0 281.854 0C282.475 0 283.021 0.23333 283.488 0.699998C283.954 1.0125 284.188 1.4 284.188 1.86667C284.188 3.57917 284.029 4.82084 283.721 5.6C283.254 7.15417 282.396 9.48751 281.154 12.6C275.709 24.7334 270.575 35.3875 265.754 44.5667C261.088 53.5875 256.029 62.3 250.588 70.7001C248.096 74.7459 246.154 79.1001 244.754 83.7667C239.309 101.346 235.888 117.754 234.488 133C234.329 134.4 234.254 136.421 234.254 139.067C234.254 139.221 234.409 140.233 234.721 142.1C236.275 141.013 237.363 139.767 237.988 138.367C238.609 136.813 239.075 135.721 239.388 135.1C244.988 123.433 250.429 113.4 255.721 105C259.296 98.9334 262.721 94.1876 265.988 90.7667C267.854 88.5876 269.954 86.7209 272.288 85.1667C273.221 84.3876 274.388 84.0001 275.788 84.0001C278.588 84.0001 280.221 85.5542 280.688 88.6667C280.842 89.2876 280.921 90.3001 280.921 91.7001V96.8334C280.921 97.9209 280.842 99.2459 280.688 100.8C280.688 102.354 280.763 104.146 280.921 106.167C280.921 108.967 281.075 110.988 281.388 112.233C281.854 114.879 282.942 116.2 284.654 116.2C285.588 116.2 286.521 115.967 287.454 115.5C290.096 114.413 294.142 111.846 299.588 107.8C305.029 103.754 308.842 100.567 311.021 98.2334C311.796 97.3001 312.654 96.4459 313.588 95.6667C314.363 95.0459 315.296 95.1209 316.388 95.9001ZM265.054 35.9334C265.363 35.4667 265.521 35.0792 265.521 34.7667C265.521 34.4542 265.596 34.2209 265.754 34.0667L265.054 35.9334ZM264.354 37.1C264.042 37.2542 263.575 37.6459 262.954 38.2667L264.354 37.1ZM262.488 38.7334C262.175 40.6 261.629 41.9209 260.854 42.7H261.088V42.4667C262.175 41.0667 262.642 39.8209 262.488 38.7334ZM316.854 137.433C313.9 137.433 311.334 136.733 309.154 135.333C307.134 133.779 305.734 131.6 304.954 128.8C303.867 125.688 303.4 123.046 303.554 120.867C303.4 118.067 303.942 114.488 305.188 110.133C308.142 100.8 312.654 93.2542 318.721 87.5001C321.054 85.3209 323.234 83.6876 325.254 82.6001C327.434 81.3542 329.842 80.7334 332.488 80.7334C334.821 80.7334 336.609 81.5126 337.854 83.0667C339.254 84.6209 339.8 86.7209 339.488 89.3667C338.867 94.0334 336.921 98.0793 333.654 101.5C329.767 105.7 326.188 109.046 322.921 111.533C319.654 113.867 315.921 115.267 311.721 115.733C310.788 115.888 310.167 116.588 309.854 117.833C309.7 118.454 309.621 119.388 309.621 120.633C309.621 122.813 309.934 124.6 310.554 126C311.488 130.354 314.134 132.146 318.488 131.367C321.288 130.746 324.634 129.5 328.521 127.633C334.588 124.367 340.188 120.4 345.321 115.733L361.888 100.1L366.321 95.9001C367.567 94.8126 368.734 94.8126 369.821 95.9001C370.909 96.9876 371.142 98.1542 370.521 99.4001C370.209 100.021 369.588 100.8 368.654 101.733C359.321 111.221 351.542 118.533 345.321 123.667C339.875 128.179 334.354 131.754 328.754 134.4C324.088 136.421 320.121 137.433 316.854 137.433ZM314.754 108.733C322.688 104.533 328.134 99.7876 331.088 94.5001C332.488 92.3209 333.188 90.5334 333.188 89.1334C333.034 87.5792 332.334 86.9542 331.088 87.2667C329.688 87.4209 328.288 87.9667 326.888 88.9001C320.667 92.9459 316 99.0876 312.888 107.333C312.888 108.113 313.042 108.5 313.354 108.5C314.134 108.813 314.6 108.888 314.754 108.733ZM435.934 171.733C435 172.667 433.992 173.133 432.9 173.133C431.034 173.133 429.867 172.121 429.4 170.1C429.092 168.546 428.934 166.833 428.934 164.967V161.7C428.934 154.388 430.259 144.588 432.9 132.3C435.7 118.613 440.759 100.8 448.067 78.8667C448.38 77.6209 449.234 74.9001 450.634 70.7001L465.334 24.0334C465.492 23.4125 465.88 22.3208 466.5 20.7667C467.125 19.0542 467.825 17.5792 468.6 16.3333C469.225 15.5542 469.846 15.0875 470.467 14.9333C471.246 14.6208 471.946 14.6208 472.567 14.9333C474.125 15.8667 474.513 17.1875 473.734 18.9C472.18 22.6334 470.08 29.0125 467.434 38.0334L464.634 47.3667C463.859 50.0125 462.925 52.8875 461.834 56C460.9 58.9542 459.892 62.2209 458.8 65.8001C453.2 82.7542 448.613 96.9876 445.034 108.5C440.525 123.279 437.413 137.667 435.7 151.667C435.392 153.221 435.234 154.467 435.234 155.4C435.234 155.554 435.159 155.946 435 156.567C435 157.346 435.392 157.733 436.167 157.733C436.792 157.733 437.259 157.421 437.567 156.8C437.88 156.333 438.113 156.021 438.267 155.867L441.3 148.867L447.834 134.633C451.259 126.854 454.367 120.013 457.167 114.1C466.5 93.8792 477.08 75.9126 488.9 60.2001C495.592 51.4875 502.2 44.4125 508.734 38.9667L515.5 34.0667C516.434 33.6 517.834 33.0542 519.7 32.4334C521.413 32.1209 522.892 32.4334 524.134 33.3667C525.38 34.1459 526.159 35.3875 526.467 37.1C526.78 38.9667 526.934 40.2875 526.934 41.0667C526.934 41.3792 526.7 43.6334 526.234 47.8334C524.834 54.9875 522.659 63.0792 519.7 72.1001C515.192 86.1001 512.234 96.3667 510.834 102.9C509.28 109.433 508.5 114.488 508.5 118.067C508.5 119.313 508.813 120.167 509.434 120.633C509.592 120.788 509.9 120.867 510.367 120.867C511.146 120.867 511.767 120.479 512.234 119.7C515.659 115.967 518.067 113.088 519.467 111.067C520.4 109.821 522.659 106.788 526.234 101.967C529.967 97.1459 533.626 92.7876 537.201 88.9001C539.692 85.9459 542.725 82.8334 546.3 79.5667C548.634 77.5459 551.125 76.5334 553.767 76.5334C557.192 76.5334 559.68 78.0126 561.234 80.9667C562.325 83.1459 563.101 85.5542 563.567 88.2001L566.367 108.733C567.301 114.333 568.392 118.454 569.634 121.1C571.659 125.613 574.146 127.867 577.1 127.867C579.28 127.867 581.613 126.854 584.1 124.833C584.88 124.213 588.146 120.088 593.901 112.467C595.459 110.133 599.267 105 605.334 97.0667C605.646 96.9126 605.88 96.6792 606.034 96.3667C606.346 96.0542 606.734 95.8209 607.201 95.6667C608.134 95.0459 609.067 95.1209 610.001 95.9001C611.092 96.3667 611.48 97.1459 611.167 98.2334C610.859 99.4793 610.159 100.879 609.067 102.433C595.692 120.479 587.213 130.433 583.634 132.3C580.834 133.546 578.501 134.167 576.634 134.167C573.367 134.167 570.259 132.379 567.301 128.8C564.659 125.379 563.026 122.033 562.401 118.767C561.78 115.654 560.767 109.9 559.367 101.5L557.5 89.3667C557.192 87.8126 556.88 86.5667 556.567 85.6334C555.946 83.7667 554.934 82.8334 553.534 82.8334C552.759 82.8334 551.825 83.2209 550.734 84.0001C549.646 84.7792 548.48 85.7876 547.234 87.0334C545.992 88.1209 545.059 88.9792 544.434 89.6001C538.834 95.8209 532.767 103.367 526.234 112.233C523.9 115.346 521.413 118.533 518.767 121.8C516.746 124.288 514.646 126.154 512.467 127.4C511.067 128.333 509.667 128.8 508.267 128.8C507.025 128.8 505.859 128.333 504.767 127.4C503.834 126.313 503.213 124.833 502.9 122.967C502.746 122.188 502.667 121.254 502.667 120.167C502.667 119.079 502.592 118.221 502.434 117.6C502.746 111.221 504.067 103.754 506.4 95.2001C507.334 92.0876 509.359 85.4001 512.467 75.1334L515.5 65.1001C517.992 56.7 519.546 50.3209 520.167 45.9667C520.48 44.8792 520.634 43.0875 520.634 40.6C520.634 39.9792 520.246 39.6667 519.467 39.6667C518.692 39.6667 517.834 39.9792 516.9 40.6C516.125 41.0667 515.5 41.4542 515.034 41.7667C509.125 46.2792 503.446 51.8 498 58.3334C485.867 73.4209 475.525 89.9876 466.967 108.033C462.767 116.746 456.625 129.967 448.534 147.7L445.5 154.233C444.413 156.721 442.625 160.454 440.134 165.433C439.046 167.767 437.646 169.867 435.934 171.733ZM615.938 133.7C613.763 134.946 611.584 135.567 609.405 135.567C606.605 135.567 604.117 134.713 601.938 133C599.763 131.133 598.363 128.721 597.738 125.767C597.271 123.588 597.117 121.567 597.271 119.7C598.205 110.054 601.863 101.579 608.238 94.2668C610.263 91.6209 612.438 89.9126 614.771 89.1334C615.705 88.6667 616.717 88.4334 617.805 88.4334C619.363 88.7459 620.217 89.5209 620.371 90.7667V91.7001C620.371 92.9459 619.905 93.6459 618.971 93.8001C616.638 94.2667 614.85 95.1209 613.605 96.3667C612.363 97.6126 610.805 99.7126 608.938 102.667C606.763 106.554 605.205 110.521 604.271 114.567C603.651 116.433 603.338 118.688 603.338 121.333C603.338 123.979 603.805 126 604.738 127.4C605.83 128.8 607.384 129.5 609.405 129.5C610.65 129.5 611.896 129.113 613.138 128.333C614.384 127.554 615.396 126.467 616.171 125.067C618.038 121.8 618.971 119 618.971 116.667C618.971 114.488 618.271 112.233 616.871 109.9C616.251 108.967 615.471 107.413 614.538 105.233V104.533C614.538 103.754 614.771 103.133 615.238 102.667C615.705 102.2 616.251 101.888 616.871 101.733H624.105C626.905 102.046 631.263 101.346 637.171 99.6334L650.005 94.9667L653.738 94.0334C654.984 94.0334 655.996 94.6542 656.771 95.9001C656.93 96.2126 657.005 96.6001 657.005 97.0667C657.005 98.3126 656.305 99.1667 654.905 99.6334L648.605 101.967C647.671 102.279 645.03 103.213 640.671 104.767C636.471 106.167 632.271 107.1 628.071 107.567C626.517 107.721 625.505 107.954 625.038 108.267C624.571 108.421 624.338 108.888 624.338 109.667C624.338 110.6 624.417 111.454 624.571 112.233C624.884 114.1 625.038 115.5 625.038 116.433C625.038 119.388 624.338 122.421 622.938 125.533C621.384 128.954 619.051 131.679 615.938 133.7ZM661.742 133.7C659.563 134.946 657.384 135.567 655.209 135.567C652.409 135.567 649.917 134.713 647.742 133C645.563 131.133 644.163 128.721 643.542 125.767C643.076 123.588 642.917 121.567 643.076 119.7C644.009 110.054 647.663 101.579 654.042 94.2668C656.063 91.6209 658.242 89.9126 660.576 89.1334C661.509 88.6667 662.517 88.4334 663.609 88.4334C665.163 88.7459 666.017 89.5209 666.176 90.7667V91.7001C666.176 92.9459 665.709 93.6459 664.776 93.8001C662.442 94.2667 660.651 95.1209 659.409 96.3667C658.163 97.6126 656.609 99.7126 654.742 102.667C652.563 106.554 651.009 110.521 650.076 114.567C649.451 116.433 649.142 118.688 649.142 121.333C649.142 123.979 649.609 126 650.542 127.4C651.63 128.8 653.184 129.5 655.209 129.5C656.451 129.5 657.696 129.113 658.942 128.333C660.184 127.554 661.196 126.467 661.976 125.067C663.842 121.8 664.776 119 664.776 116.667C664.776 114.488 664.076 112.233 662.676 109.9C662.051 108.967 661.276 107.413 660.342 105.233V104.533C660.342 103.754 660.576 103.133 661.042 102.667C661.509 102.2 662.051 101.888 662.676 101.733H669.909C672.709 102.046 677.063 101.346 682.976 99.6334L695.809 94.9667L699.542 94.0334C700.784 94.0334 701.796 94.6542 702.576 95.9001C702.73 96.2126 702.809 96.6001 702.809 97.0667C702.809 98.3126 702.109 99.1667 700.709 99.6334L694.409 101.967C693.476 102.279 690.83 103.213 686.476 104.767C682.276 106.167 678.076 107.1 673.876 107.567C672.317 107.721 671.309 107.954 670.842 108.267C670.376 108.421 670.142 108.888 670.142 109.667C670.142 110.6 670.217 111.454 670.376 112.233C670.684 114.1 670.842 115.5 670.842 116.433C670.842 119.388 670.142 122.421 668.742 125.533C667.184 128.954 664.851 131.679 661.742 133.7ZM690.509 151.2C688.176 151.2 686.851 149.954 686.542 147.467V144.667C686.384 143.421 686.384 142.333 686.542 141.4C688.563 127.088 691.984 114.646 696.809 104.067L704.276 86.5667C704.584 86.1001 704.817 85.6334 704.976 85.1667C705.284 84.5459 705.676 83.9209 706.142 83.3001C706.917 82.5209 707.851 82.2876 708.942 82.6001C710.342 83.0667 710.884 83.8459 710.576 84.9334C710.576 86.4876 710.184 88.2001 709.409 90.0667C708.163 93.1792 706.142 97.8459 703.342 104.067C700.23 111.379 697.742 118.533 695.876 125.533C695.251 127.713 694.942 129.267 694.942 130.2C694.942 131.133 695.176 132.067 695.642 133H695.409L695.642 133.233L704.742 114.8C708.163 108.579 711.896 103.521 715.942 99.6334C717.809 97.7667 719.596 96.2876 721.309 95.2001C722.242 94.7334 723.176 94.5001 724.109 94.5001C725.976 94.5001 727.451 95.4334 728.542 97.3001C729.009 98.0792 729.396 99.0126 729.709 100.1C730.176 101.033 730.642 101.888 731.109 102.667C732.817 105.467 734.684 106.867 736.709 106.867C737.796 106.867 739.117 106.479 740.676 105.7C745.03 103.367 749.151 100.413 753.042 96.8334C753.976 95.9001 754.984 95.1209 756.076 94.5001C756.23 94.3459 756.542 94.2668 757.009 94.2668C757.63 94.2668 758.251 94.5001 758.876 94.9667C759.809 95.9001 760.042 96.8334 759.576 97.7668C758.951 99.1668 758.251 100.179 757.476 100.8C753.584 105 748.451 108.654 742.076 111.767C740.517 112.546 738.73 112.933 736.709 112.933C732.817 112.933 729.63 111.221 727.142 107.8C727.142 107.8 725.976 105.933 723.642 102.2C722.242 102.2 720.917 102.979 719.676 104.533C715.942 108.267 712.442 113.246 709.176 119.467L704.742 128.333C704.117 129.888 701.863 134.479 697.976 142.1C696.576 144.9 695.176 147.313 693.776 149.333C692.996 150.579 691.909 151.2 690.509 151.2ZM759.142 137.433C756.184 137.433 753.617 136.733 751.442 135.333C749.417 133.779 748.017 131.6 747.242 128.8C746.151 125.688 745.684 123.046 745.842 120.867C745.684 118.067 746.23 114.488 747.476 110.133C750.43 100.8 754.942 93.2542 761.009 87.5001C763.342 85.3209 765.517 83.6876 767.542 82.6001C769.717 81.3542 772.13 80.7334 774.776 80.7334C777.109 80.7334 778.897 81.5126 780.142 83.0667C781.542 84.6209 782.084 86.7209 781.776 89.3667C781.151 94.0334 779.209 98.0793 775.942 101.5C772.051 105.7 768.476 109.046 765.209 111.533C761.942 113.867 758.209 115.267 754.009 115.733C753.076 115.888 752.451 116.588 752.142 117.833C751.984 118.454 751.909 119.388 751.909 120.633C751.909 122.813 752.217 124.6 752.842 126C753.776 130.354 756.417 132.146 760.776 131.367C763.576 130.746 766.917 129.5 770.809 127.633C776.876 124.367 782.476 120.4 787.609 115.733L804.176 100.1L808.609 95.9001C809.851 94.8126 811.017 94.8126 812.109 95.9001C813.197 96.9876 813.43 98.1542 812.809 99.4001C812.497 100.021 811.876 100.8 810.942 101.733C801.609 111.221 793.83 118.533 787.609 123.667C782.163 128.179 776.642 131.754 771.042 134.4C766.376 136.421 762.409 137.433 759.142 137.433ZM757.042 108.733C764.976 104.533 770.417 99.7876 773.376 94.5001C774.776 92.3209 775.476 90.5334 775.476 89.1334C775.317 87.5792 774.617 86.9542 773.376 87.2667C771.976 87.4209 770.576 87.9667 769.176 88.9001C762.951 92.9459 758.284 99.0876 755.176 107.333C755.176 108.113 755.33 108.5 755.642 108.5C756.417 108.813 756.884 108.888 757.042 108.733Z" fill="black"/>
</g>
<defs>
<clipPath id="clip0_28_8">
<rect width="814" height="174" fill="white"/>
</clipPath>
</defs>
</svg>
