<?xml version="1.0" encoding="UTF-8"?>
<svg xmlns="http://www.w3.org/2000/svg" version="1.1" viewBox="0 0 59.99 66.88">
  <!-- Generator: Adobe Illustrator 28.7.1, SVG Export Plug-In . SVG Version: 1.2.0 Build 142)  -->
  <g>
    <g id="Layer_1">
      <path d="M56.68,11.54c-13.31.1-23.01-4.92-25.78-10.01l-.25-.46h-1.31l-.25.46c-2.73,5.02-12.22,10.02-25.18,10.02-.2,0-.4,0-.6,0h-.9s0,2.29,0,2.29c.02,5.14.04,11.54.95,19.99,1.26,11.69,5.31,19.81,12.77,25.55,5.34,4.11,12.24,6.06,13.53,6.39l.38.05.25-.03c1.33-.35,8.24-2.3,13.58-6.41,7.45-5.74,11.51-13.86,12.77-25.55.91-8.45.93-14.85.95-19.99v-2.3s-.89.01-.89.01ZM55.8,13.83c-.02,5.1-.04,11.45-.94,19.81-1.2,11.18-5.04,18.91-12.08,24.34-4.83,3.72-11.23,5.62-12.78,6.06-1.29-.35-7.86-2.26-12.79-6.06-7.04-5.43-10.88-13.16-12.08-24.34-.9-8.36-.92-14.7-.94-19.81v-.51c11.31-.08,21.77-4.12,25.81-9.9,4.03,5.78,14.5,9.82,25.81,9.9v.51Z"/>
    </g>
  </g>
</svg>