<?xml version="1.0" encoding="UTF-8"?>
<svg xmlns="http://www.w3.org/2000/svg" version="1.1" viewBox="0 0 156.95 341.51">
  <!-- Generator: Adobe Illustrator 28.7.1, SVG Export Plug-In . SVG Version: 1.2.0 Build 142)  -->
  <g>
    <g id="Layer_1">
      <g>
        <g>
          <path d="M144.47,31.04c-.5,0-.99,0-1.49,0-32.46,0-56.31-12.65-63.22-25.34l-.31-.57h-1.95l-.31.57c-6.9,12.69-30.75,25.34-63.22,25.34-.49,0-.99,0-1.49,0h-1.12s0,1.1,0,1.1c0,1.1,0,2.24.01,3.4.04,12.7.09,28.5,2.33,49.36,1.46,13.6,4.37,24.94,8.9,34.68,5.18,11.14,12.46,20.22,22.24,27.75,13.31,10.25,31.18,15.13,33.17,15.65l.15.05h.6l.15-.05c1.99-.52,19.87-5.4,33.17-15.65,9.78-7.53,17.05-16.61,22.24-27.75,4.53-9.73,7.44-21.07,8.9-34.68,2.24-20.86,2.29-36.66,2.33-49.36,0-1.16,0-2.3.01-3.4v-1.12s-1.11.01-1.11.01ZM143.37,35.54c-.04,12.65-.09,28.38-2.32,49.13-1.44,13.36-4.29,24.47-8.71,33.98-5.03,10.81-12.09,19.62-21.58,26.94-12.75,9.82-29.86,14.6-32.28,15.24-2.42-.64-19.53-5.41-32.28-15.24-9.49-7.31-16.55-16.12-21.58-26.94-4.43-9.51-7.27-20.62-8.71-33.98-2.23-20.75-2.28-36.49-2.32-49.13,0-.78,0-1.54,0-2.29,14.94.05,29.18-2.57,41.27-7.59,11.06-4.59,19.39-10.87,23.63-17.78,4.24,6.91,12.57,13.19,23.63,17.78,12,4.98,26.1,7.59,40.9,7.59.12,0,.25,0,.37,0,0,.75,0,1.51,0,2.29Z"/>
          <polygon points="40.82 116.84 38.61 116.84 45.77 48.01 47.98 48.01 40.82 116.84"/>
          <polygon points="116.18 116.84 109.02 48.01 111.23 48.01 118.39 116.84 116.18 116.84"/>
          <polygon points="104.37 116.84 100.12 67.64 102.32 67.64 106.58 116.84 104.37 116.84"/>
          <polygon points="76.78 102.51 60.6 48.01 62.89 48.01 78.51 100.58 94.11 48.01 96.4 48.01 80.23 102.51 76.78 102.51"/>
          <polygon points="52.7 116.84 50.49 116.84 54.75 67.64 56.95 67.64 52.7 116.84"/>
        </g>
        <g>
          <g>
            <polygon points="59.65 264.97 59.65 246.18 54.91 246.18 54.91 244.31 66.44 244.31 66.44 246.18 61.72 246.18 61.72 264.97 59.65 264.97"/>
            <polygon points="72.92 244.31 72.92 253.41 83.61 253.41 83.61 244.31 85.68 244.31 85.68 264.97 83.61 264.97 83.61 255.29 72.92 255.29 72.92 264.97 70.85 264.97 70.85 244.31 72.92 244.31"/>
            <polygon points="93.92 246.18 93.92 253.61 102.85 253.61 102.85 255.48 93.92 255.48 93.92 263.1 103.16 263.1 103.16 264.97 91.85 264.97 91.85 244.31 103.16 244.31 103.16 246.18 93.92 246.18"/>
          </g>
          <g>
            <rect x="120.15" y="315.71" width="2.07" height="20.66"/>
            <polygon points="111.19 315.71 114.37 315.71 114.37 336.37 112.3 336.37 112.3 317.97 112.25 317.97 104.51 336.37 102.75 336.37 95.08 317.97 95.02 317.97 95.02 336.37 92.95 336.37 92.95 315.71 96.14 315.71 103.65 333.3 111.19 315.71"/>
            <path d="M77.93,315.71l-8.82,20.66h2.15l3.02-6.95h9.61l2.99,6.95h2.26l-8.88-20.66h-2.32ZM75.05,327.55l4.05-9.49,3.97,9.49h-8.01Z"/>
            <polygon points="52.97 315.71 56.15 315.71 56.15 336.37 54.09 336.37 54.09 317.97 54.03 317.97 46.29 336.37 44.54 336.37 36.86 317.97 36.8 317.97 36.8 336.37 34.73 336.37 34.73 315.71 37.92 315.71 45.43 333.3 52.97 315.71"/>
            <rect x="62.63" y="315.71" width="2.07" height="20.66"/>
          </g>
          <g>
            <polygon points="139.42 282.66 139.42 286.94 147.73 286.94 147.73 293.13 139.42 293.13 139.42 297.86 148 297.86 148 304.05 132.68 304.05 132.68 276.47 148 276.47 148 282.66 139.42 282.66"/>
            <polygon points="31.58 304.05 31.8 283.4 31.73 283.33 25.84 304.05 21.18 304.05 15.29 283.33 15.22 283.4 15.44 304.05 8.96 304.05 8.96 276.47 18.01 276.47 23.49 294.62 23.56 294.62 28.97 276.47 38.06 276.47 38.06 304.05 31.58 304.05"/>
            <path d="M121.72,294.66c5.22-.86,6.86-5.52,6.86-8.68,0-2.83-1.12-5.74-3.39-7.53-1.79-1.38-3.65-1.97-8.5-1.97h-8.72v27.58h6.75v-8.91h.07l6.37,8.91h8.05l-7.49-9.39ZM117.21,290.33h-2.5v-7.68h2.57c2.72,0,4.55,1.23,4.55,3.73,0,1.34-.48,3.95-4.62,3.95Z"/>
            <path d="M89.41,275.95c-7.71,0-12,5.18-13.45,8.76-.82,2.01-1.08,4.06-1.08,5.89,0,7.08,5.81,13.98,14.5,13.98s14.61-6.63,14.61-14.31-6.07-14.31-14.57-14.31ZM89.52,298.38c-4.73,0-7.6-3.95-7.6-8.2,0-3.88,2.65-8.05,7.53-8.05s7.49,4.58,7.49,8.16-2.42,8.09-7.42,8.09Z"/>
            <path d="M56.77,275.95c-7.71,0-12,5.18-13.45,8.76-.82,2.01-1.08,4.06-1.08,5.89,0,7.08,5.81,13.98,14.5,13.98s14.61-6.63,14.61-14.31-6.07-14.31-14.57-14.31ZM56.88,298.38c-4.73,0-7.6-3.95-7.6-8.2,0-3.88,2.65-8.05,7.53-8.05s7.49,4.58,7.49,8.16-2.42,8.09-7.42,8.09Z"/>
          </g>
        </g>
      </g>
    </g>
  </g>
</svg>