<?xml version="1.0" encoding="UTF-8"?>
<svg xmlns="http://www.w3.org/2000/svg" version="1.1" viewBox="0 0 67.43 66.88">
  <defs>
    <style>
      .cls-1 {
        fill: #d3aa7c;
      }
    </style>
  </defs>
  <!-- Generator: Adobe Illustrator 28.7.1, SVG Export Plug-In . SVG Version: 1.2.0 Build 142)  -->
  <g>
    <g id="Layer_1">
      <path class="cls-1" d="M33.72,19.26c-7.84,0-14.19,6.35-14.19,14.19s6.35,14.19,14.19,14.19,14.19-6.35,14.19-14.19c0-7.83-6.36-14.18-14.19-14.19ZM33.72,45.05c-6.41,0-11.61-5.2-11.61-11.61s5.2-11.61,11.61-11.61,11.61,5.2,11.61,11.61c0,6.41-5.2,11.6-11.61,11.61ZM47.9,2.49h-28.37c-9.26.01-16.76,7.51-16.77,16.77v28.37c.01,9.26,7.51,16.76,16.77,16.77h28.37c9.26-.01,16.76-7.51,16.77-16.77v-28.37c-.01-9.26-7.51-16.76-16.77-16.77ZM62.09,47.63c0,7.83-6.36,14.18-14.19,14.19h-28.37c-7.83,0-14.18-6.36-14.19-14.19v-28.37c0-7.83,6.36-14.18,14.19-14.19h28.37c7.83,0,14.18,6.36,14.19,14.19v28.37ZM53.06,16.68c0,1.42-1.15,2.58-2.58,2.58s-2.58-1.15-2.58-2.58,1.15-2.58,2.58-2.58c1.42,0,2.58,1.16,2.58,2.58Z"/>
    </g>
  </g>
</svg>