<?xml version="1.0" encoding="UTF-8"?>
<svg xmlns="http://www.w3.org/2000/svg" version="1.1" viewBox="0 0 102.66 110.26">
  <defs>
    <style>
      .cls-1 {
        fill: #d3aa7c;
      }
    </style>
  </defs>
  <!-- Generator: Adobe Illustrator 28.7.1, SVG Export Plug-In . SVG Version: 1.2.0 Build 142)  -->
  <g>
    <g id="Layer_1">
      <g>
        <polygon class="cls-1" points="65.63 44.14 68.48 77 70.25 77 67.4 44.14 65.63 44.14"/>
        <polygon class="cls-1" points="24.56 77 26.33 77 31.11 31.03 29.34 31.03 24.56 77"/>
        <polygon class="cls-1" points="71.58 31.03 76.36 77 78.13 77 73.35 31.03 71.58 31.03"/>
        <polygon class="cls-1" points="32.49 77 34.26 77 37.1 44.14 35.33 44.14 32.49 77"/>
        <path class="cls-1" d="M95.4,19.55c-22.16.27-38.42-8.27-43.08-16.84l-.25-.46h-1.48l-.25.46c-4.66,8.57-20.97,17.11-43.08,16.84h-.9s.01,3.16.01,3.16c.03,8.48.06,19.04,1.56,32.98,2.06,19.14,8.68,32.41,20.85,41.79,8.71,6.71,20.02,9.9,22.17,10.46l.15.06h.42s.15-.04.15-.04c2.18-.57,13.49-3.77,22.2-10.48,12.17-9.38,18.8-22.66,20.85-41.79,1.5-13.94,1.53-24.5,1.56-32.98v-3.16s-.88.01-.88.01ZM94.52,22.7c-.03,8.44-.06,18.95-1.55,32.8-2,18.62-8.41,31.52-20.18,40.58-8.42,6.49-19.74,9.68-21.47,10.14-1.73-.46-13.05-3.65-21.47-10.14-11.76-9.06-18.17-21.96-20.18-40.58-1.49-13.85-1.52-24.35-1.55-32.79v-1.38h.04c19.17,0,36.94-6.95,43.15-16.81,6.21,9.86,23.98,16.81,43.15,16.81h.05v1.38Z"/>
        <polygon class="cls-1" points="51.35 65.63 41.07 31.03 39.24 31.03 50.05 67.43 52.65 67.43 63.45 31.03 61.62 31.03 51.35 65.63"/>
      </g>
    </g>
  </g>
</svg>